HIERARCHY
ROOT Root
{
	OFFSET 0.00000 0.00000 0.00000
	CHANNELS 6 Xposition Yposition Zposition Zrotation Xrotation Yrotation
	JOINT Hips
	{
		OFFSET 0 0 0	
		CHANNELS 3 Zrotation Xrotation Yrotation
		JOINT Spine
		{
			OFFSET 0 4 0	
			CHANNELS 3 Zrotation Xrotation Yrotation
			JOINT Spine1
			{
				OFFSET 0 19.4 0	
				CHANNELS 3 Zrotation Xrotation Yrotation
				JOINT Spine2
				{
					OFFSET 0 16.6 0	
					CHANNELS 3 Zrotation Xrotation Yrotation
					JOINT LeftCollar
					{
						OFFSET 0 10 0	
						CHANNELS 3 Zrotation Xrotation Yrotation
						JOINT LeftArm
						{
							OFFSET 15.6 -2 3	
							CHANNELS 3 Zrotation Xrotation Yrotation
							JOINT LeftForeArm
							{
								OFFSET 3.5 -27 -1	
								CHANNELS 3 Zrotation Xrotation Yrotation
								JOINT LeftHand
								{
									OFFSET 1 -27 1	
									CHANNELS 3 Zrotation Xrotation Yrotation
									End Site
									{
										OFFSET 0 -15 0
									}
								}
							}
						}
					}
					JOINT RightCollar
					{
						OFFSET 0 10 0	
						CHANNELS 3 Zrotation Xrotation Yrotation
						JOINT RightArm
						{
							OFFSET -15.6 -2 3	
							CHANNELS 3 Zrotation Xrotation Yrotation
							JOINT RightForeArm
							{
								OFFSET -3.5 -27 -1	
								CHANNELS 3 Zrotation Xrotation Yrotation
								JOINT RightHand
								{
									OFFSET -1 -27 1	
									CHANNELS 3 Zrotation Xrotation Yrotation
									End Site
									{
										OFFSET 0 -15 0
									}
								}
							}
						}
					}
					JOINT Neck
					{
						OFFSET 0 10 0	
						CHANNELS 3 Zrotation Xrotation Yrotation
						JOINT Head
						{
							OFFSET 0 12.7 3	
							CHANNELS 3 Zrotation Xrotation Yrotation
							End Site
							{
								OFFSET 0 12.7 3
							}
						}
					}
				}
			}
		}
	}
	JOINT LeftHip
	{
		OFFSET 0 0 0	
		CHANNELS 3 Zrotation Xrotation Yrotation
		JOINT LeftUpLeg
		{
			OFFSET 8.8 -6 0	
			CHANNELS 3 Zrotation Xrotation Yrotation
			JOINT LeftLeg
			{
				OFFSET 0 -39 2	
				CHANNELS 3 Zrotation Xrotation Yrotation
				JOINT LeftFoot
				{
					OFFSET 0 -43 -2	
					CHANNELS 3 Zrotation Xrotation Yrotation
					JOINT LeftFootFront
					{
						OFFSET 0 -7 8.5	
						CHANNELS 3 Zrotation Xrotation Yrotation
						End Site
						{
							OFFSET 0 -0.5 9
						}
					}
				}
				JOINT LeftHeel
				{
					OFFSET 0 -43 -2	
					CHANNELS 3 Zrotation Xrotation Yrotation
					End Site
					{
						OFFSET 0 -7.5 -5
					}
				}
			}
		}
	}
	JOINT RightHip
	{
		OFFSET 0 0 0	
		CHANNELS 3 Zrotation Xrotation Yrotation
		JOINT RightUpLeg
		{
			OFFSET -8.8 -6 0	
			CHANNELS 3 Zrotation Xrotation Yrotation
			JOINT RightLeg
			{
				OFFSET 0 -39 2	
				CHANNELS 3 Zrotation Xrotation Yrotation
				JOINT RightFoot
				{
					OFFSET 0 -43 -2	
					CHANNELS 3 Zrotation Xrotation Yrotation
					JOINT RightFootFront
					{
						OFFSET 0 -7 8.5	
						CHANNELS 3 Zrotation Xrotation Yrotation
						End Site
						{
							OFFSET 0 -0.5 9
						}
					}
				}
				JOINT RightHeel
				{
					OFFSET 0 -43 -2	
					CHANNELS 3 Zrotation Xrotation Yrotation
					End Site
					{
						OFFSET 0 -7.5 -5
					}
				}
			}
		}
	}
}
MOTION
Frames: 17
Frame Time: 0.025
0 46.371 0 -0 0 -0 168.72 -67.384 150.75 0.82318 2.2818 7.5187 0.82318 2.2818 7.5187 0.71165 1.9098 6.3173 -0 0 -0 34.417 -72.934 -7.2025 11.066 -15.247 13.151 -0 0 -0 -0 0 -0 -36.323 -64.756 -10.342 -2.9636 2.2771 8.3051 -0 0 -0 -1.4362 5.8733 -59.765 -1.4362 5.8733 -59.765 168.72 -67.384 150.75 58.274 -76.65 33.969 7.7044 3.4754 9.9379 -0 0 -0 -0 0 -0 -0 0 -0 168.72 -67.384 150.75 -144.08 62.12 135.49 -174.4 15.791 173.73 -0 0 -0 -0 0 -0 -0 0 -0 
0 46.371 0 -0 0 -0 168.68 -67.42 151.23 0.87054 2.2019 7.2437 0.87054 2.2019 7.2437 0.75002 1.8425 6.0865 -0 0 -0 40.037 -72.202 -1.4611 10.893 -13.998 12.639 -0 0 -0 -0 0 -0 -38.441 -63.97 -12.79 -3.5167 2.3745 9.146 -0 0 -0 -1.5459 5.9315 -59.643 -1.5459 5.9315 -59.643 168.68 -67.42 151.23 58.688 -76.242 34.117 7.7071 3.5514 9.8117 -0 0 -0 -0 0 -0 -0 0 -0 168.68 -67.42 151.23 -144.83 62.451 136.34 -173.28 15.699 173.51 -0 0 -0 -0 0 -0 -0 0 -0 
0 46.371 0 -0 0 -0 168.67 -67.431 151.79 0.90887 2.1556 6.9582 0.90887 2.1555 6.9582 0.7811 1.8035 5.8467 -0 0 -0 45.558 -71.348 4.0507 10.655 -12.769 12.507 -0 0 -0 -0 0 -0 -40.755 -63.152 -15.37 -3.9717 2.3814 10.187 -0 0 -0 -1.6317 5.9719 -59.538 -1.6317 5.9719 -59.538 168.67 -67.431 151.79 59.133 -75.823 34.372 7.6886 3.6886 9.9187 -0 0 -0 -0 0 -0 -0 0 -0 168.67 -67.431 151.79 -145.73 62.789 137.36 -172.04 15.587 173.23 -0 0 -0 -0 0 -0 -0 0 -0 
0 46.371 0 -0 0 -0 168.72 -67.388 152.41 0.95206 2.1743 6.6985 0.95205 2.1744 6.6985 0.81685 1.8192 5.6287 -0 0 -0 50.319 -70.38 8.7307 10.536 -11.669 13.037 -0 0 -0 -0 0 -0 -43.384 -62.263 -18.161 -4.3236 2.3182 11.281 -0 0 -0 -1.7004 5.9544 -59.477 -1.7004 5.9544 -59.477 168.72 -67.388 152.41 59.769 -75.314 34.908 7.6453 3.8791 10.309 -0 0 -0 -0 0 -0 -0 0 -0 168.72 -67.388 152.41 -146.72 63.07 138.46 -170.69 15.448 172.93 -0 0 -0 -0 0 -0 -0 0 -0 
0 46.371 0 -0 0 -0 168.83 -67.34 153.06 1.0142 2.2822 6.4463 1.0142 2.2822 6.4463 0.86924 1.9096 5.4171 -0 0 -0 54.494 -69.382 13.016 10.537 -10.75 13.893 -0 0 -0 -0 0 -0 -46.299 -61.359 -21.089 -4.5931 2.1702 12.269 -0 0 -0 -1.7435 5.802 -59.422 -1.7435 5.802 -59.422 168.83 -67.34 153.06 60.851 -74.678 36.001 7.5867 4.068 10.845 -0 0 -0 -0 0 -0 -0 0 -0 168.83 -67.34 153.06 -147.67 63.308 139.54 -169.21 15.292 172.63 -0 0 -0 -0 0 -0 -0 0 -0 
0 46.371 0 -0 0 -0 169.01 -67.299 153.73 1.0869 2.4221 6.1745 1.0869 2.422 6.1745 0.93053 2.0269 5.1891 -0 0 -0 58.085 -68.242 16.991 10.607 -10.043 14.542 -0 0 -0 -0 0 -0 -49.167 -60.342 -23.837 -4.8124 1.9335 13.125 -0 0 -0 -1.772 5.5942 -59.332 -1.772 5.5942 -59.332 169.01 -67.299 153.73 62.236 -73.921 37.502 7.5532 4.2021 11.375 -0 0 -0 -0 0 -0 -0 0 -0 169.01 -67.299 153.73 -148.56 63.52 140.59 -167.65 15.119 172.36 -0 0 -0 -0 0 -0 -0 0 -0 
0 46.371 0 -0 0 -0 169.17 -67.257 154.34 1.1457 2.5078 5.907 1.1457 2.5079 5.907 0.97979 2.0989 4.9647 -0 0 -0 60.826 -66.951 20.245 10.732 -9.4739 14.738 -0 0 -0 -0 0 -0 -51.676 -59.081 -26.133 -5.0244 1.6407 13.909 -0 0 -0 -1.801 5.4821 -59.216 -1.801 5.4821 -59.216 169.17 -67.257 154.34 63.771 -73.06 39.18 7.5631 4.2944 11.824 -0 0 -0 -0 0 -0 -0 0 -0 169.17 -67.257 154.34 -149.39 63.699 141.56 -166.01 14.913 172.11 -0 0 -0 -0 0 -0 -0 0 -0 
0 46.371 0 -0 0 -0 169.31 -67.24 154.85 1.1776 2.5241 5.6887 1.1776 2.5241 5.6887 1.006 2.1126 4.7815 -0 0 -0 62.889 -65.684 22.75 10.869 -8.9866 14.638 -0 0 -0 -0 0 -0 -53.824 -57.634 -27.99 -5.2593 1.3566 14.576 -0 0 -0 -1.8123 5.4933 -59.115 -1.8123 5.4933 -59.115 169.31 -67.24 154.85 65.455 -72.1 40.931 7.5867 4.3761 12.192 -0 0 -0 -0 0 -0 -0 0 -0 169.31 -67.24 154.85 -150.05 63.855 142.34 -164.31 14.664 171.89 -0 0 -0 -0 0 -0 -0 0 -0 
0 46.371 0 -0 0 -0 169.42 -67.279 155.23 1.1779 2.493 5.5499 1.1779 2.493 5.5499 1.0057 2.0866 4.6648 -0 0 -0 64.525 -64.566 24.61 10.968 -8.6427 14.47 -0 0 -0 -0 0 -0 -55.674 -56.134 -29.513 -5.5504 1.1435 15.026 -0 0 -0 -1.7774 5.582 -59.066 -1.7774 5.582 -59.066 169.42 -67.279 155.23 67.277 -71.043 42.707 7.6026 4.4519 12.559 -0 0 -0 -0 0 -0 -0 0 -0 169.42 -67.279 155.23 -150.47 64.009 142.87 -162.57 14.376 171.75 -0 0 -0 -0 0 -0 -0 0 -0 
0 46.371 0 -0 0 -0 169.51 -67.374 155.49 1.162 2.419 5.4898 1.162 2.419 5.4898 0.99163 2.0247 4.6142 -0 0 -0 65.774 -63.54 25.838 10.987 -8.5105 14.304 -0 0 -0 -0 0 -0 -57.269 -54.669 -30.769 -5.9055 1.0152 15.274 -0 0 -0 -1.7214 5.7261 -59.072 -1.7214 5.7261 -59.072 169.51 -67.374 155.49 69.113 -69.883 44.402 7.6259 4.4954 12.995 -0 0 -0 -0 0 -0 -0 0 -0 169.51 -67.374 155.49 -150.66 64.161 143.15 -160.84 14.066 171.78 -0 0 -0 -0 0 -0 -0 0 -0 
0 46.371 0 -0 0 -0 169.62 -67.431 155.75 1.143 2.3532 5.4456 1.143 2.3532 5.4456 0.97514 1.9695 4.5771 -0 0 -0 66.89 -62.43 26.726 10.87 -8.5761 14.102 -0 0 -0 -0 0 -0 -58.781 -53.329 -31.916 -6.2658 0.92829 15.407 -0 0 -0 -1.6714 5.8729 -59.094 -1.6714 5.8729 -59.094 169.62 -67.431 155.75 70.6 -68.66 45.663 7.6742 4.4829 13.484 -0 0 -0 -0 0 -0 -0 0 -0 169.62 -67.431 155.75 -150.86 64.272 143.44 -159.18 13.758 171.92 -0 0 -0 -0 0 -0 -0 0 -0 
0 46.371 0 -0 0 -0 169.71 -67.379 156.05 1.1164 2.3339 5.3586 1.1164 2.3339 5.3586 0.95242 1.9536 4.5039 -0 0 -0 68.06 -61.067 27.474 10.589 -8.7532 13.828 -0 0 -0 -0 0 -0 -60.287 -52.132 -33.009 -6.6047 0.85059 15.494 -0 0 -0 -1.6407 5.9861 -59.091 -1.6407 5.9861 -59.091 169.71 -67.379 156.05 71.596 -67.448 46.354 7.7786 4.4411 13.999 -0 0 -0 -0 0 -0 -0 0 -0 169.71 -67.379 156.05 -151.28 64.318 143.93 -157.58 13.467 172.01 -0 0 -0 -0 0 -0 -0 0 -0 
0 46.371 0 -0 0 -0 169.72 -67.263 156.29 1.0872 2.3431 5.2224 1.0872 2.3431 5.2224 0.92762 1.9617 4.3894 -0 0 -0 69.212 -59.42 28.031 10.197 -8.915 13.469 -0 0 -0 -0 0 -0 -61.781 -51.041 -33.978 -6.9623 0.82223 15.522 -0 0 -0 -1.6428 6.0604 -59.051 -1.6428 6.0604 -59.051 169.72 -67.263 156.29 72.296 -66.288 46.702 7.9805 4.3985 14.434 -0 0 -0 -0 0 -0 -0 0 -0 169.72 -67.263 156.29 -151.86 64.335 144.52 -156.02 13.195 171.97 -0 0 -0 -0 0 -0 -0 0 -0 
0 46.371 0 -0 0 -0 169.71 -67.139 156.54 1.0828 2.3641 5.0346 1.0828 2.3641 5.0346 0.92348 1.9796 4.2316 -0 0 -0 70.229 -57.547 28.397 9.7907 -8.9409 13.057 -0 0 -0 -0 0 -0 -63.297 -50 -34.749 -7.3455 0.86226 15.332 -0 0 -0 -1.691 6.0898 -58.975 -1.691 6.0898 -58.975 169.71 -67.139 156.54 72.797 -65.188 46.809 8.2477 4.3429 14.611 -0 0 -0 -0 0 -0 -0 0 -0 169.71 -67.139 156.54 -152.49 64.356 145.16 -154.47 12.948 171.79 -0 0 -0 -0 0 -0 -0 0 -0 
0 46.371 0 -0 0 -0 169.72 -66.978 156.85 1.1021 2.4083 4.7903 1.1021 2.4083 4.7903 0.93929 2.0169 4.0266 -0 0 -0 71.103 -55.532 28.672 9.4548 -8.7728 12.697 -0 0 -0 -0 0 -0 -64.846 -48.948 -35.365 -7.7107 0.92178 14.727 -0 0 -0 -1.7751 6.0698 -58.866 -1.7751 6.0698 -58.866 169.72 -66.978 156.85 73.086 -64.16 46.663 8.5311 4.2945 14.593 -0 0 -0 -0 0 -0 -0 0 -0 169.72 -66.978 156.85 -153.25 64.36 145.94 -152.93 12.729 171.54 -0 0 -0 -0 0 -0 -0 0 -0 
0 46.371 0 -0 0 -0 169.67 -66.78 157.09 1.1162 2.4626 4.5397 1.1162 2.4626 4.5397 0.95067 2.0628 3.8162 -0 0 -0 71.836 -53.521 28.84 9.2545 -8.4073 12.542 -0 0 -0 -0 0 -0 -66.386 -47.821 -36.005 -8.0678 1.0188 13.734 -0 0 -0 -1.8635 6.0247 -58.754 -1.8635 6.0247 -58.754 169.67 -66.78 157.09 73.306 -63.176 46.475 8.8539 4.284 14.574 -0 0 -0 -0 0 -0 -0 0 -0 169.67 -66.78 157.09 -154.05 64.333 146.72 -151.4 12.519 171.25 -0 0 -0 -0 0 -0 -0 0 -0 
0 46.371 0 -0 0 -0 169.61 -66.616 157.25 1.129 2.4907 4.3392 1.129 2.4908 4.3392 0.96095 2.0866 3.6478 -0 0 -0 72.386 -51.626 28.809 9.2184 -7.8688 12.64 -0 0 -0 -0 0 -0 -67.837 -46.614 -36.749 -8.5383 1.2146 12.574 -0 0 -0 -1.9434 5.9931 -58.674 -1.9434 5.9931 -58.674 169.61 -66.616 157.25 73.603 -62.167 46.468 9.1997 4.2508 14.537 -0 0 -0 -0 0 -0 -0 0 -0 169.61 -66.616 157.25 -154.64 64.294 147.29 -149.89 12.317 170.95 -0 0 -0 -0 0 -0 -0 0 -0 
